<?xml version="1.0" encoding="UTF-8"?>
<svg version="1.1" xmlns="http://www.w3.org/2000/svg" width="500" height="500">
<path d="M0 0 C13.96060924 12.97627515 24.33397787 27.42915728 33.10791016 44.28808594 C33.66220703 45.3309375 34.21650391 46.37378906 34.78759766 47.44824219 C50.7371241 79.47125512 52.81665167 120.42958364 41.79150391 154.32470703 C35.56915776 172.19617406 26.93727674 188.52235176 15.10791016 203.28808594 C20.2163605 209.47175349 25.80003079 215.10208844 31.48779297 220.74975586 C32.5299866 221.78838729 33.57194172 222.8272581 34.61367798 223.86634827 C36.84504205 226.09119628 39.07790576 228.31452407 41.3119278 230.53670311 C44.84467848 234.05107275 48.37300275 237.56986399 51.90057373 241.08943176 C61.92784459 251.0926139 71.96107333 261.08980788 81.99853516 271.08276367 C87.55145416 276.61113885 93.10077662 282.14309899 98.64626193 287.67893106 C102.15235534 291.17848488 105.6629059 294.67348557 109.17682695 298.16517866 C111.35869932 300.33532671 113.53638419 302.5096389 115.71290207 304.68515587 C116.72299213 305.69309773 117.73480501 306.69931647 118.74845505 307.70367813 C120.13144759 309.07448507 121.50770578 310.45207631 122.88360596 311.83000183 C123.65564991 312.59890338 124.42769386 313.36780493 125.22313309 314.16000652 C128.93254541 318.34825994 129.51108664 321.65266079 129.35009766 327.10839844 C128.99949348 330.26383602 128.21691038 331.90695666 126.10791016 334.28808594 C121.48978695 337.70549711 118.11878486 338.73563273 112.41650391 338.81933594 C107.06961481 337.58891814 103.02177816 333.45117765 99.24832153 329.66900635 C97.86023537 328.28504417 97.86023537 328.28504417 96.44410706 326.87312317 C95.43627717 325.8582168 94.42854417 324.84321421 93.42089844 323.828125 C92.34656533 322.7532272 91.27179055 321.67877069 90.1966095 320.60472107 C87.28967032 317.69835414 84.38892559 314.78587583 81.48927546 311.87223911 C78.45395105 308.82438598 75.41293667 305.78222078 72.37252808 302.73944092 C66.62069499 296.98139936 60.87397787 291.21827997 55.12909305 285.45330691 C48.58648485 278.88832002 42.03817573 272.32903221 35.48938775 265.77021074 C22.02255372 252.28248905 8.56287542 238.78764708 -4.89208984 225.28808594 C-8.60829683 226.70621323 -11.28534402 228.23501137 -14.39208984 230.72558594 C-45.46184455 253.63224155 -85.86666796 261.92157255 -123.75512695 256.20605469 C-149.17713349 251.6812732 -174.34866622 241.41210361 -193.89208984 224.28808594 C-194.39208496 223.8567334 -194.89208008 223.42538086 -195.40722656 222.98095703 C-207.89423606 212.16098898 -218.33540731 200.45135294 -226.89208984 186.28808594 C-227.47603516 185.32805664 -227.47603516 185.32805664 -228.07177734 184.34863281 C-240.5249968 163.47486396 -246.98835828 139.49114682 -247.89208984 115.28808594 C-247.93333984 114.25554687 -247.97458984 113.22300781 -248.01708984 112.15917969 C-248.45233265 90.42424202 -244.18210572 67.97407196 -234.89208984 48.28808594 C-234.42077637 47.28382568 -234.42077637 47.28382568 -233.93994141 46.25927734 C-228.81065747 35.54140768 -222.50123881 26.1319328 -215.11181641 16.84423828 C-214.08935873 15.53976565 -213.12048995 14.19353134 -212.16552734 12.83886719 C-211.74529297 12.32710937 -211.32505859 11.81535156 -210.89208984 11.28808594 C-210.23208984 11.28808594 -209.57208984 11.28808594 -208.89208984 11.28808594 C-208.65490234 10.72992188 -208.41771484 10.17175781 -208.17333984 9.59667969 C-195.37328729 -13.46682964 -161.64868298 -26.81187087 -137.89208984 -33.71191406 C-136.76802734 -34.04964844 -135.64396484 -34.38738281 -134.48583984 -34.73535156 C-87.66801751 -47.17903592 -35.41446182 -32.04209114 0 0 Z M-178.89208984 20.28808594 C-179.41254883 20.76616699 -179.93300781 21.24424805 -180.46923828 21.73681641 C-191.71118177 32.1842413 -199.92176396 43.56341609 -206.89208984 57.28808594 C-207.20436523 57.86171875 -207.51664063 58.43535156 -207.83837891 59.02636719 C-210.67959811 64.38981047 -212.41710878 69.82188522 -214.01708984 75.66308594 C-214.26845703 76.54480469 -214.51982422 77.42652344 -214.77880859 78.33496094 C-223.21364207 108.45305745 -219.41707991 139.35977654 -205.07958984 167.10058594 C-196.3817986 181.99786669 -185.63281543 194.80587528 -171.89208984 205.28808594 C-171.11349609 205.89394531 -170.33490234 206.49980469 -169.53271484 207.12402344 C-144.86508164 225.41780511 -113.06193717 232.43347391 -82.82958984 228.53808594 C-80.51268043 228.14668061 -78.19998821 227.72952958 -75.89208984 227.28808594 C-74.69841797 227.07796875 -73.50474609 226.86785156 -72.27490234 226.65136719 C-55.11988611 223.05547933 -38.10256117 214.81873281 -24.89208984 203.28808594 C-24.04001953 202.57136719 -23.18794922 201.85464844 -22.31005859 201.11621094 C3.07276883 179.12555861 17.52706732 149.69364321 20.10791016 116.28808594 C22.16410409 84.8326937 10.35553758 54.41146937 -9.79443359 30.66699219 C-10.83277344 29.48943359 -10.83277344 29.48943359 -11.89208984 28.28808594 C-12.42962891 27.67835937 -12.96716797 27.06863281 -13.52099609 26.44042969 C-35.74279188 2.88198454 -66.53138234 -8.39815951 -98.30615234 -9.57519531 C-127.91965772 -10.43219371 -157.02635749 0.17543708 -178.89208984 20.28808594 Z " fill="#0D0D0D" transform="translate(308.89208984375,63.7119140625)"/>
<path d="M0 0 C-1.4264578 3.2586636 -3.16704162 5.4024854 -5.6953125 7.890625 C-6.76845703 8.95410156 -6.76845703 8.95410156 -7.86328125 10.0390625 C-8.60964844 10.76867187 -9.35601562 11.49828125 -10.125 12.25 C-10.87910156 12.99507812 -11.63320312 13.74015625 -12.41015625 14.5078125 C-14.26900772 16.3431342 -16.13237005 18.1736191 -18 20 C-18.66 19.67 -19.32 19.34 -20 19 C-18.625 17 -18.625 17 -17 15 C-16.34 15 -15.68 15 -15 15 C-14.7834375 14.45859375 -14.566875 13.9171875 -14.34375 13.359375 C-12.53500003 10.18354656 -10.08276201 7.79271919 -7.5 5.25 C-7.00113281 4.74339844 -6.50226563 4.23679687 -5.98828125 3.71484375 C-2.25341139 0 -2.25341139 0 0 0 Z " fill="#646464" transform="translate(115,60)"/>
</svg>
